<?xml version="1.0" encoding="UTF-8"?>
<!DOCTYPE svg PUBLIC "-//W3C//DTD SVG 1.1//EN" "http://www.w3.org/Graphics/SVG/1.1/DTD/svg11.dtd">
<svg xmlns="http://www.w3.org/2000/svg" version="1.1" width="64px" height="64px" style="shape-rendering:geometricPrecision; text-rendering:geometricPrecision; image-rendering:optimizeQuality; fill-rule:evenodd; clip-rule:evenodd" xmlns:xlink="http://www.w3.org/1999/xlink">
<g><path style="opacity:0.972" fill="#e9f7ff" d="M 32.5,44.5 C 33.8333,44.5 35.1667,44.5 36.5,44.5C 37.4822,45.1408 38.4822,45.8075 39.5,46.5C 39.8333,45.8333 40.1667,45.1667 40.5,44.5C 42.0592,35.201 44.0592,26.0343 46.5,17C 35.8108,20.8345 25.1441,25.0011 14.5,29.5C 16.0311,28.0755 15.6977,27.4088 13.5,27.5C 24.3414,21.7204 35.6748,17.2204 47.5,14C 48.1078,15.231 48.4411,16.5643 48.5,18C 46.8285,28.1953 44.9952,38.362 43,48.5C 41.2739,49.5762 39.4406,49.7429 37.5,49C 35.7605,47.483 34.0938,45.983 32.5,44.5 Z"/></g>
<g><path style="opacity:0.991" fill="#edf8ff" d="M 36.5,44.5 C 35.1667,44.5 33.8333,44.5 32.5,44.5C 31.8501,44.1961 31.1835,43.8627 30.5,43.5C 28.4759,45.3581 26.3092,47.0248 24,48.5C 20.8208,44.7999 19.3208,40.4666 19.5,35.5C 15.6336,35.0458 12.1336,33.7125 9,31.5C 8.97582,28.6975 10.4758,27.3642 13.5,27.5C 15.6977,27.4088 16.0311,28.0755 14.5,29.5C 13.9569,29.56 13.6236,29.8933 13.5,30.5C 15.7415,31.6924 18.0748,32.6924 20.5,33.5C 27.1667,29.5 33.8333,25.5 40.5,21.5C 41.521,22.0016 41.6877,22.6683 41,23.5C 36.3333,27.5 31.6667,31.5 27,35.5C 24.0609,43.2642 25.2276,44.5976 30.5,39.5C 32.5441,41.2194 34.5441,42.8861 36.5,44.5 Z"/></g>
</svg>
