<?xml version="1.0" encoding="UTF-8"?>
<!DOCTYPE svg PUBLIC "-//W3C//DTD SVG 1.1//EN" "http://www.w3.org/Graphics/SVG/1.1/DTD/svg11.dtd">
<svg xmlns="http://www.w3.org/2000/svg" version="1.1" width="64px" height="64px" style="shape-rendering:geometricPrecision; text-rendering:geometricPrecision; image-rendering:optimizeQuality; fill-rule:evenodd; clip-rule:evenodd" xmlns:xlink="http://www.w3.org/1999/xlink">
<g><path style="opacity:0.964" fill="#e2f4ff" d="M 25.5,15.5 C 25.6716,16.4916 25.3382,17.1583 24.5,17.5C 22.834,16.3336 21.1673,16.3336 19.5,17.5C 25.9721,27.1384 32.6388,36.6384 39.5,46C 42.8872,47.1451 43.8872,46.3117 42.5,43.5C 43.1667,43.1667 43.8333,42.8333 44.5,42.5C 46.2676,44.5078 47.9343,46.6744 49.5,49C 45.4589,49.8265 41.4589,49.6599 37.5,48.5C 34.4724,44.6388 31.6391,40.6388 29,36.5C 25.5,40.6667 22,44.8333 18.5,49C 17.1667,49.6667 15.8333,49.6667 14.5,49C 18.8333,44 23.1667,39 27.5,34C 22.8333,27.3333 18.1667,20.6667 13.5,14C 17.1667,13.3333 20.8333,13.3333 24.5,14C 25.056,14.3826 25.3893,14.8826 25.5,15.5 Z"/></g>
<g><path style="opacity:0.967" fill="#dff3ff" d="M 44.5,42.5 C 43.8333,42.8333 43.1667,43.1667 42.5,43.5C 36.0095,35.1902 30.0095,26.5235 24.5,17.5C 25.3382,17.1583 25.6716,16.4916 25.5,15.5C 28.3133,19.0979 31.1467,22.7645 34,26.5C 37.3137,22.3519 40.8137,18.3519 44.5,14.5C 46.0745,13.3691 47.7412,13.2025 49.5,14C 44.2785,18.7187 39.6118,23.8853 35.5,29.5C 38.7565,33.688 41.7565,38.0214 44.5,42.5 Z"/></g>
</svg>
